# xmcd
#
# Track frame offsets: 
#        150
#        19239
#        39135
#        73056
#        90059
#        107860
#        149589
#        165967
#        189056
#        214163
#        235264
#        248092
#        262024
#        286370
#        313691
#        337569
#
# Disc length: 4694 seconds
#
# Revision: 21
# Processed by: cddbd v1.5.2PL0 Copyright (c) Steve Scherf et al.
# Submitted via: ExactAudioCopyFreeDBPlugin 1.0
#
DISCID=d2125410
DTITLE=Various Artist - Chillout Moods CD 1
DYEAR=2001
DGENRE=New Age
TTITLE0=Mike Oldfield - Tubular Bells
TTITLE1=Hevia - Busindre Reel
TTITLE2=Sacred Spirit - Heya-Hee (Intertribal Song To Stop The Rain)
TTITLE3=Altan - The Waves Of Gola
TTITLE4=Adiemus - Kayama
TTITLE5=Chris Hinze - Angel
TTITLE6=Douglas Spotted Eagle - Grandfather's Song
TTITLE7=Amarna - Night Rain
TTITLE8=Jon Anderson - Change We Must
TTITLE9=Robbie Robertson and The Red Road Ensemble - The Vanishing Breed
TTITLE10=Brian Eno - From The Same Hill
TTITLE11=Feargal Sharkey - She Moved Through The Fair
TTITLE12=Kate Price - Beloved
TTITLE13=David Arkenstone - Jewels Of The Night
TTITLE14=Craig Armstrong - Balcony Scene (Romeo And Juliet)
TTITLE15=Gerry Rafferty - The Right Moment
EXTD=
EXTT0=
EXTT1=
EXTT2=
EXTT3=
EXTT4=
EXTT5=
EXTT6=
EXTT7=
EXTT8=
EXTT9=
EXTT10=
EXTT11=
EXTT12=
EXTT13=
EXTT14=
EXTT15=
PLAYORDER=
